<?xml version="1.0" encoding="iso-8859-1"?>
<!-- Generator: Adobe Illustrator 19.0.0, SVG Export Plug-In . SVG Version: 6.00 Build 0)  -->
<svg version="1.1" id="Layer_1" xmlns="http://www.w3.org/2000/svg" xmlns:xlink="http://www.w3.org/1999/xlink" x="0px" y="0px"
	 viewBox="0 0 512 512" style="enable-background:new 0 0 512 512;" xml:space="preserve">
<g>
	<g>
		<path d="M508.255,490.146l-128-128c-0.06-0.06-0.137-0.077-0.196-0.128c34.193-38.434,55.142-88.917,55.142-144.418
			c0-120.175-97.425-217.6-217.6-217.6S0.001,97.425,0.001,217.6s97.425,217.6,217.6,217.6c55.501,0,105.975-20.949,144.418-55.151
			c0.06,0.06,0.077,0.137,0.128,0.196l128,128c2.5,2.509,5.777,3.755,9.054,3.755s6.554-1.246,9.054-3.746
			C513.247,503.253,513.247,495.147,508.255,490.146z M217.601,409.6c-105.865,0-192-86.135-192-192s86.135-192,192-192
			s192,86.135,192,192S323.466,409.6,217.601,409.6z"/>
	</g>
</g>
<g>
</g>
<g>
</g>
<g>
</g>
<g>
</g>
<g>
</g>
<g>
</g>
<g>
</g>
<g>
</g>
<g>
</g>
<g>
</g>
<g>
</g>
<g>
</g>
<g>
</g>
<g>
</g>
<g>
</g>
</svg>
